<?xml version="1.0" encoding="UTF-8"?>
<svg id="Ebene_2" data-name="Ebene 2" xmlns="http://www.w3.org/2000/svg" viewBox="0 0 48 48">
  <g id="Ebene_2-2" data-name="Ebene 2">
    <rect width="48" height="48" style="fill: none;"/>
    <g>
      <path d="M35.27,20.21c0,.52.41.95.91.95h0c2.54.03,5.08-.31,7.53-1,.49-.13.78-.65.65-1.16s-.63-.81-1.11-.67c-.02,0-.04.01-.05.02-2.29.65-4.65.96-7.01.93-.5,0-.91.42-.91.95"/>
      <path d="M35.27,28.75c0,.52.41.95.91.95,2.54.03,5.08-.31,7.53-1,.49-.13.78-.65.65-1.16-.13-.51-.63-.81-1.11-.67-.02,0-.04.01-.05.02-2.29.65-4.65.96-7.01.93-.5,0-.91.43-.91.95h0Z"/>
      <path d="M43.19,35.41c-2.29.65-4.65.96-7.01.93-.5.02-.89.47-.87.99.02.49.4.88.87.91,2.54.03,5.08-.31,7.53-1,.48-.15.76-.68.61-1.18-.14-.5-.65-.79-1.13-.64h0Z"/>
      <path d="M36.17,6c-5.73,0-11.83,1.83-11.83,5.21,0,.1.02.2.03.3-.02.06-.03.12-.03.17v25.58c0,3.11,5.95,4.74,11.83,4.74s11.83-1.63,11.83-4.74V11.68c0-.06-.02-.12-.03-.17.02-.1.03-.2.03-.3,0-3.39-6.09-5.21-11.83-5.21M46.18,28.74c0,.96-3.53,2.84-10.01,2.84s-10-1.88-10-2.84v-5.89c2.21,1.38,6.12,2.1,10,2.1s7.8-.72,10.01-2.1v5.89ZM46.18,20.22c0,.96-3.53,2.84-10.01,2.84s-10-1.88-10-2.84v-6.14c2.23,1.54,6.19,2.35,10,2.35s7.77-.81,10.01-2.35v6.14ZM36.18,7.9c6.11,0,10.01,1.96,10.01,3.32s-3.9,3.31-10.01,3.31-10.01-1.97-10.01-3.33,3.9-3.31,10-3.31h0ZM36.18,40.11c-6.47,0-10-1.88-10-2.84v-5.89c2.21,1.38,6.12,2.1,10,2.1s7.8-.72,10.01-2.1v5.89c0,.96-3.53,2.83-10.01,2.83h0Z"/>
      <path d="M28.9,17.37c.5,0,.91.42.91.95s-.41.95-.91.95-.91-.42-.91-.95.41-.95.91-.95"/>
      <path d="M28.9,25.89c.5,0,.91.42.91.95s-.41.95-.91.95-.91-.42-.91-.95.41-.95.91-.95"/>
      <path d="M28.9,34.42c.5,0,.91.42.91.95s-.41.95-.91.95-.91-.42-.91-.95.41-.95.91-.95"/>
    </g>
    <g>
      <g>
        <rect x="1.1" y="6.5" width="13.46" height="35" style="fill: none; stroke: #000; stroke-miterlimit: 10; stroke-width: 1.2px;"/>
        <line x1="1.1" y1="20.63" x2="14.56" y2="20.63" style="fill: none; stroke: #000; stroke-miterlimit: 10;"/>
        <line x1="1.1" y1="27.37" x2="14.56" y2="27.37" style="fill: none; stroke: #000; stroke-miterlimit: 10;"/>
        <line x1="1.25" y1="9.91" x2="14.71" y2="9.91" style="fill: none; stroke: #000; stroke-miterlimit: 10; stroke-width: .5px;"/>
        <line x1="1.25" y1="13.49" x2="14.71" y2="13.49" style="fill: none; stroke: #000; stroke-miterlimit: 10; stroke-width: .5px;"/>
        <line x1=".96" y1="17.06" x2="14.42" y2="17.06" style="fill: none; stroke: #000; stroke-miterlimit: 10; stroke-width: .5px;"/>
        <line x1="1.25" y1="31" x2="14.71" y2="31" style="fill: none; stroke: #000; stroke-miterlimit: 10; stroke-width: .5px;"/>
        <line x1="1.25" y1="34.63" x2="14.71" y2="34.63" style="fill: none; stroke: #000; stroke-miterlimit: 10; stroke-width: .5px;"/>
        <line x1=".96" y1="38.26" x2="14.42" y2="38.26" style="fill: none; stroke: #000; stroke-miterlimit: 10; stroke-width: .5px;"/>
      </g>
      <text transform="translate(3.85 26.27)" style="font-family: Verdana-Bold, Verdana; font-size: 5.61px; font-weight: 700;"><tspan x="0" y="0">S7</tspan></text>
    </g>
    <g>
      <line x1="16.3" y1="24" x2="21.65" y2="24" style="fill: none; stroke: #000; stroke-linecap: square; stroke-miterlimit: 10;"/>
      <polygon points="21.21 25.5 23.8 24 21.21 22.5 21.21 25.5"/>
    </g>
  </g>
</svg>