<?xml version="1.0" encoding="UTF-8"?>
<svg id="Ebene_2" data-name="Ebene 2" xmlns="http://www.w3.org/2000/svg" viewBox="0 0 48 48">
  <g id="Ebene_2-2" data-name="Ebene 2">
    <rect width="48" height="48" style="fill: none;"/>
  </g>
  <g id="Ebene_5" data-name="Ebene 5">
    <path d="M40.35,30c.07-.41.12-.82.12-1.23,0-1.66-.57-3.19-1.53-4.4h-6.32c-.69,0-1.3-.27-1.75-.71l-3.67,2.58-6.2-4.36c-1.88-1.36-3.12-3.29-3.57-5.5-5.95,1.19-10.44,6.44-10.44,12.73,0,.34.02.67.05,1-3.47.88-6.05,4.01-6.05,7.75,0,4.42,3.58,8.01,8,8.01h30c4.42,0,8-3.59,8-8.01,0-3.95-2.88-7.23-6.65-7.87Z" style="fill: #002b51;"/>
    <g>
      <g>
        <path d="M27.21,1l-8.95,4.7v8.87c.01.56.07,1.12.19,1.65.42,1.96,1.53,3.67,3.2,4.86l5.56,3.92,3.3-2.32.76-.54c-.05-.03-.09-.07-.14-.11-.24-.24-.47-.52-.47-.88l-.27.19-.49.33-2.69,1.88-4.91-3.44c-1.37-1-2.31-2.39-2.7-3.98-.13-.54-.2-1.09-.21-1.66V6.47l7.82-4.1,7.84,4.1-.02,8c0,.57-.08,1.12-.2,1.63-.08.31-.17.63-.3.92h1.23c.09-.29.18-.61.24-.92.11-.49.16-1,.16-1.53V5.7L27.21,1Z"/>
        <path d="M32.08,16.1c-1.26,0-2.29,1.03-2.29,2.29v2.21c.21.24.41.48.6.74l.34-.24s-.02-.05-.02-.07v-2.64c0-.75.62-1.37,1.37-1.37h2.45c.13-.29.22-.61.3-.92h-2.75ZM44.71,16.1h-12.63c-1.26,0-2.29,1.03-2.29,2.29v2.64c0,.22.04.44.11.64.09.38.31.73.61,1.01.4.4.95.64,1.57.64h12.63c1.26,0,2.29-1.03,2.29-2.29v-2.64c0-1.26-1.03-2.29-2.29-2.29ZM46.08,21.03c0,.75-.6,1.37-1.37,1.37h-12.63c-.29,0-.59-.09-.81-.26-.05-.03-.09-.07-.14-.11-.24-.24-.4-.57-.4-.93-.02-.02-.02-.05-.02-.07v-2.64c0-.75.62-1.37,1.37-1.37h12.63c.77,0,1.37.62,1.37,1.37v2.64ZM32.08,16.1c-1.26,0-2.29,1.03-2.29,2.29v2.21c.21.24.41.48.6.74,0,0,.32-.29.32-.31v-2.64c0-.75.62-1.37,1.37-1.37h2.45c.13-.29.22-.61.3-.92h-2.75Z"/>
      </g>
      <path d="M32.51,6.69c-1.14-1.11-2.9-1.29-4.24-.43-1.33.87-1.89,2.54-1.32,4.06l-5.72,5.7v1.65c0,.12.17.3.29.3h1.62c.19-.15.47-.43.61-.6l.07-.61c.06,0,.12,0,.18-.01.24-.01.43-.05.53-.13l.1-.67c.22,0,.57,0,.65-.11.1-.15.1-.45.12-.66l.63-.07,2.87-2.85c1.58.58,3.25-.02,4.1-1.36.85-1.34.64-3.1-.49-4.21ZM30.92,9c-.39,0-.7-.31-.7-.7s.31-.7.7-.7.71.31.71.7-.32.7-.71.7Z"/>
      <text transform="translate(30.59 22.51)" style="font-family: Verdana-Bold, Verdana; font-size: 5.49px; font-weight: 700;"><tspan x="0" y="0">****</tspan></text>
    </g>
    <g id="REST" style="isolation: isolate;">
      <text transform="translate(7.5 40.87)" style="fill: #fff; font-family: Calibri-Bold, Calibri; font-size: 12.28px; font-weight: 700; isolation: isolate;"><tspan x="0" y="0">{R</tspan></text>
      <text transform="translate(18.64 40.87)" style="fill: #fff; font-family: Calibri-Bold, Calibri; font-size: 12.28px; font-weight: 700; isolation: isolate;"><tspan x="0" y="0" style="letter-spacing: 0em;">E</tspan><tspan x="5.87" y="0" style="letter-spacing: 0em;">S</tspan></text>
      <text transform="translate(30.2 40.87)" style="fill: #fff; font-family: Calibri-Bold, Calibri; font-size: 12.28px; font-weight: 700; isolation: isolate;"><tspan x="0" y="0">T}</tspan></text>
    </g>
  </g>
</svg>