<?xml version="1.0" encoding="UTF-8"?>
<svg id="Ebene_2" data-name="Ebene 2" xmlns="http://www.w3.org/2000/svg" viewBox="0 0 48 48">
  <g id="Ebene_7" data-name="Ebene 7">
    <rect width="48" height="48" style="fill: none;"/>
    <g>
      <circle cx="43.48" cy="5.56" r="3.52" style="fill: #c00;"/>
      <path d="M43.87,11.46c-.36,0-.7-.05-1.04-.1v22.04c0,1.74-1.41,3.15-3.15,3.15h-18.37c-.74,0-1.44.31-1.93.85l-5.33,4.69-.02-3.74v-.15c-.14-.94-.95-1.64-1.9-1.64h-5.62c-1.73,0-3.15-1.41-3.15-3.15V8.87c0-1.74,1.41-3.15,3.15-3.15h31.23c-.01-.15-.04-.29-.04-.44,0-.67.13-1.31.33-1.92H6.51c-3.04,0-5.51,2.47-5.51,5.51v24.52c0,3.04,2.47,5.51,5.51,5.51h5.16l.03,5.65c.01.48.3.92.74,1.12l.76.3,7.79-6.85.12-.12c.05-.06.12-.09.2-.09h18.37c3.04,0,5.51-2.47,5.51-5.51V11.31c-.43.09-.87.15-1.32.15Z"/>
      <g>
        <g>
          <path d="M41.76,26.44v.07h-3.03s-2.76-3.41-2.76-3.41v3.41s-2.4,0-2.4,0v-11.59s2.4,0,2.4,0v6.74s2.64-3.14,2.64-3.14h2.92s-3.31,3.86-3.31,3.86l3.26,3.76c.1.12.17.23.29.3Z"/>
          <g>
            <path d="M21.49,25.62c-.44.64-1.32,1-2.1,1.05-1.08.07-2.11-.38-2.84-1.18-1.6-1.75-1.48-4.71.31-6.26.72-.63,1.67-.96,2.63-.86.74.08,1.53.38,2,1.02l.02-.87h2.4s0,7.99,0,7.99h-2.4s0-.89,0-.89ZM20.68,24.22c.34-.15.61-.39.81-.71v-1.97c-.69-1.04-2.12-1.36-3.12-.52-.48.4-.73,1.08-.66,1.72.11.91.84,1.64,1.75,1.72.4.04.87-.03,1.21-.24Z"/>
            <path d="M32.65,24.52c-.67,1.23-1.9,2-3.27,2.13-1.3.12-2.67-.44-3.51-1.44-.7-.83-1.07-1.89-1-2.97.14-2.06,1.75-3.7,3.81-3.88,1.61-.14,3.17.69,3.98,2.12l-1.91,1.07c-.59-1.01-1.83-1.3-2.77-.71-.71.44-1.08,1.33-.84,2.18.22.79.92,1.4,1.79,1.44.75.04,1.43-.35,1.83-1.01l1.91,1.05Z"/>
          </g>
        </g>
        <g>
          <path d="M10.58,25.64c-.63.69-1.31.92-2.22,1.02-.85.09-2.32-.14-3.11-.53-.29-.15-.56-.27-.81-.47l.7-1.61c.83.59,1.8.86,2.81.83.28,0,.51-.05.75-.19s.38-.44.23-.7c-.42-.74-3.51-.34-4.14-2.23-.32-.95-.02-1.96.74-2.61,1.12-.96,2.76-.94,4.11-.54.47.15.89.35,1.27.66l-.66,1.65c-.67-.43-1.37-.69-2.13-.78h-.62c-.19.04-.37.09-.51.21-.17.15-.27.37-.14.58.43.71,2.9.61,3.89,1.86.66.84.54,2.1-.16,2.85Z"/>
          <rect x="12.09" y="14.92" width="2.4" height="11.59"/>
        </g>
      </g>
    </g>
  </g>
</svg>