<?xml version="1.0" encoding="UTF-8"?>
<svg id="Ebene_2" data-name="Ebene 2" xmlns="http://www.w3.org/2000/svg" viewBox="0 0 787.49 800">
  <g id="Ebene_1-2" data-name="Ebene 1">
    <path d="M786.25,481.43l-76.43-331.43c-4.27-17.87-20.7-36.43-39.27-41.43L322.68,1.43c-4.3-1.43-9.3-1.43-15-1.43-15,0-30,5.7-40.73,15L17.68,247.13c-13.6,12.2-20.73,36.43-16.43,53.57l81.43,355c4.27,17.87,20.7,36.43,39.27,41.43l325.73,101.43c4.27,1.43,9.27,1.43,15,1.43,15,0,30-5.7,40.7-15l266.43-247.87c13.57-14.27,20.73-37.13,16.43-55.7h0ZM359.11,80l239.27,73.57c9.3,2.87,9.3,7.13,0,9.3l-125.7,28.57c-9.3,2.87-22.87-1.43-29.3-8.57l-87.13-94.3c-7.87-7.87-6.43-11.43,2.87-8.57ZM508.38,508.57c2.87,9.3-3.57,15-12.83,12.13l-257.87-80c-9.3-2.83-11.43-10.7-4.3-17.13l197.17-183.57c7.13-7.13,15-4.3,17.13,5l60.7,263.57ZM83.41,275l209.27-195c7.13-7.13,17.87-5.7,25,.7l105,113.6c7.13,7.13,5.7,17.83-.73,25l-209.27,195c-7.13,7.13-17.87,5.7-25-.73l-105-113.57c-7.13-7.87-6.43-19.3.7-25h.03ZM134.15,583.57l-55-242.87c-2.87-9.27,1.43-11.4,7.83-4.27l87.17,94.27c7.13,7.17,9.27,20.73,7.13,30l-37.87,122.87c-2.83,10-7.13,10-9.27,0ZM440.58,726.43l-273.6-85c-9.59-3.05-14.98-13.21-12.13-22.87l45.73-147.13c3.05-9.57,13.19-14.96,22.83-12.13l273.57,84.27c9.3,2.87,15,12.87,12.17,22.87l-45.73,147.13c-3.33,9.39-13.08,14.89-22.83,12.87ZM683.41,527.13l-182.83,170c-7.17,7.17-10.73,4.3-7.87-5l37.87-122.83c2.83-9.3,12.83-19.3,22.83-20.73l125.73-28.57c9.27-3.57,10.7.7,4.27,7.13h0ZM703.41,490l-150.7,34.3c-9.3,2.83-19.3-3.6-21.43-12.87l-64.3-278.57c-2.83-9.3,3.6-19.3,12.87-21.43l150.73-34.3c9.27-2.83,19.27,3.57,21.4,12.87l64.3,278.57c2.13,10.73-3.57,20-12.87,21.43h0Z" style="fill: #4f82b5;"/>
  </g>
</svg>