<?xml version="1.0" encoding="UTF-8"?>
<svg id="Ebene_2" data-name="Ebene 2" xmlns="http://www.w3.org/2000/svg" viewBox="0 0 48 48">
  <g id="Ebene_2-2" data-name="Ebene 2">
    <rect width="48" height="48" style="fill: none;"/>
  </g>
  <g id="Ebene_7" data-name="Ebene 7">
    <g>
      <circle cx="43.48" cy="5.56" r="3.52" style="fill: #c00;"/>
      <path d="M43.87,11.46c-.36,0-.7-.05-1.04-.1v22.04c0,1.74-1.41,3.15-3.15,3.15h-18.37c-.74,0-1.44.31-1.93.85l-5.33,4.69-.02-3.74v-.15c-.14-.94-.95-1.64-1.9-1.64h-5.62c-1.73,0-3.15-1.41-3.15-3.15V8.87c0-1.74,1.41-3.15,3.15-3.15h31.23c-.01-.15-.04-.29-.04-.44,0-.67.13-1.31.33-1.92H6.51c-3.04,0-5.51,2.47-5.51,5.51v24.52c0,3.04,2.47,5.51,5.51,5.51h5.16l.03,5.65c.01.48.3.92.74,1.12l.76.3,7.79-6.85.12-.12c.05-.06.12-.09.2-.09h18.37c3.04,0,5.51-2.47,5.51-5.51V11.31c-.43.09-.87.15-1.32.15Z" style="fill: #5059c9;"/>
      <g>
        <g>
          <circle cx="12.66" cy="17.89" r="2.89" style="fill: none; stroke: #66c; stroke-miterlimit: 10; stroke-width: 1.01px;"/>
          <path d="M16.02,23.05c-2.24,1.63-3.9,4-4.62,6.75h-6.29c0-4.16,3.37-7.54,7.54-7.54,1.21,0,2.35.28,3.36.79Z" style="fill: #66c;"/>
        </g>
        <g>
          <circle cx="33.54" cy="17.74" r="2.89" style="fill: none; stroke: #66c; stroke-miterlimit: 10; stroke-width: 1.01px;"/>
          <path d="M41.08,29.66h-6.34c-.74-2.74-2.43-5.09-4.69-6.69,1.05-.55,2.22-.86,3.48-.86,4.16,0,7.54,3.38,7.54,7.54Z" style="fill: #66c;"/>
        </g>
        <g>
          <path d="M23.09,23.78c4.52,0,8.28,3.33,8.95,7.66H14.14c.67-4.33,4.43-7.66,8.95-7.66h0ZM23.09,22.38c-5.77,0-10.45,4.68-10.45,10.45h20.9c0-5.77-4.68-10.45-10.45-10.45h0Z" style="fill: #66c;"/>
          <circle cx="23.09" cy="16.33" r="4" style="fill: none; stroke: #66c; stroke-miterlimit: 10; stroke-width: 1.39px;"/>
        </g>
      </g>
    </g>
  </g>
</svg>